<mxGraphModel background="#FFFFFF" grid="1" guides="1" style="default-style2"><root><mxCell id="0"/><mxCell id="2" parent="0" value="Layer 0"/><mxCell id="3" parent="2" style="shape=ellipse;perimeter=ellipsePerimeter;shadow=0;strokeWidth=0;strokeColor=none;fillColor=#1c4587;opacity=100.0;html=1;nl2Br=0;verticalAlign=middle;align=center;spacingLeft=7.6;spacingRight=6;whiteSpace=wrap;gliffyId=792;" value="&lt;div style='width: 73.8px;height:auto;word-break: break-word;'&gt;&lt;div align=&quot;center&quot;&gt;&lt;/div&gt;&lt;div align=&quot;center&quot;&gt;&lt;span style=&quot;font-weight: bold; font-size: 16px; color: #ffffff; line-height: 18.5px;&quot;&gt;A&lt;/span&gt;&lt;/div&gt;&lt;div align=&quot;center&quot;&gt;&lt;span style=&quot;font-weight: bold; font-size: 16px; color: #ffffff; line-height: 18.5px;&quot;&gt;(F1,F2)&lt;/span&gt;&lt;/div&gt;&lt;/div&gt;" vertex="1"><mxGeometry as="geometry" height="51.0" width="80.0" x="169.5" y="155.0"/></mxCell><mxCell edge="1" id="4" parent="2" source="3" style="shape=filledEdge;strokeWidth=2;strokeColor=#000000;fillColor=none;startArrow=none;startFill=0;startSize=6;endArrow=none;endFill=0;endSize=6;rounded=1;gliffyId=907;edgeStyle=orthogonalEdgeStyle;" target="8"><mxGeometry as="geometry" height="100.0" relative="1" width="100.0"><Array as="points"><mxPoint x="249.5" y="180.5"/><mxPoint x="256.75" y="180.5"/><mxPoint x="264.0" y="180.5"/><mxPoint x="271.25" y="180.5"/></Array></mxGeometry></mxCell><mxCell edge="1" id="5" parent="2" source="8" style="shape=filledEdge;strokeWidth=2;strokeColor=#000000;fillColor=none;startArrow=none;startFill=0;startSize=6;endArrow=none;endFill=0;endSize=6;rounded=1;gliffyId=1445;edgeStyle=orthogonalEdgeStyle;" target="3"><mxGeometry as="geometry" height="100.0" relative="1" width="100.0"><Array as="points"><mxPoint x="381.25" y="180.5"/><mxPoint x="421.25" y="180.5"/><mxPoint x="421.25" y="246.0"/><mxPoint x="209.5" y="246.0"/><mxPoint x="209.5" y="206.0"/></Array></mxGeometry></mxCell><mxCell id="6" parent="2" style="shape=rect;rounded=1;arcSize=15;absoluteArcSize=1;shadow=0;strokeWidth=1;fillColor=#ffe599;strokeColor=#000000;opacity=100.0;html=1;nl2Br=0;verticalAlign=middle;align=center;spacingLeft=7.3333335;spacingRight=6;whiteSpace=wrap;gliffyId=1204;" value="&lt;div style='width: 74.333336px;height:auto;word-break: break-word;'&gt;&lt;div align=&quot;center&quot;&gt;&lt;span style=&quot;font-size: 12px; font-family: Arial; line-height: 14px;&quot;&gt; A_sat&lt;/span&gt;&lt;/div&gt;&lt;/div&gt;" vertex="1"><mxGeometry as="geometry" height="30.0" width="80.0" x="191.25" y="100.0"/></mxCell><mxCell edge="1" id="7" parent="2" source="3" style="shape=filledEdge;strokeWidth=2;strokeColor=#000000;fillColor=none;startArrow=none;startFill=0;startSize=6;endArrow=none;endFill=0;endSize=6;rounded=1;gliffyId=1258;exitX=0.5;exitY=0.0;exitPerimeter=0;entryX=0.5;entryY=1.0;entryPerimeter=0;edgeStyle=orthogonalEdgeStyle;" target="6"><mxGeometry as="geometry" height="100.0" relative="1" width="100.0"><Array as="points"><mxPoint x="209.5" y="155.0"/><mxPoint x="209.5" y="142.5"/><mxPoint x="231.25" y="142.5"/><mxPoint x="231.25" y="130.0"/></Array></mxGeometry></mxCell><mxCell id="8" parent="2" style="shape=hexagon;perimeter=hexagonPerimeter2;shadow=0;strokeWidth=2;fillColor=#a4c2f4;strokeColor=#000000;opacity=100.0;html=1;nl2Br=0;verticalAlign=middle;align=center;spacingLeft=8.2;spacingRight=6;whiteSpace=wrap;gliffyId=901;" value="&lt;div style='width: 102.6px;height:auto;word-break: break-word;'&gt;&lt;div align=&quot;center&quot;&gt;&lt;span style=&quot;font-family: Arial; font-size: 12px; line-height: 14px;&quot;&gt;A_A&lt;span style=&quot;text-decoration: none; line-height: normal;&quot;&gt;&lt;br&gt;&lt;/span&gt;&lt;/span&gt;&lt;/div&gt;&lt;/div&gt;" vertex="1"><mxGeometry as="geometry" height="29.0" width="110.0" x="271.25" y="166.0"/></mxCell><mxCell id="9" parent="2" style="shape=rect;rounded=1;arcSize=15;absoluteArcSize=1;shadow=0;strokeWidth=2;fillColor=#a4c2f4;strokeColor=#000000;opacity=100.0;gliffyId=1450;" vertex="1"><mxGeometry as="geometry" height="22.0" width="70.0" x="291.375" y="144.0"/></mxCell><mxCell id="10" parent="2" style="shape=rect;shadow=0;strokeWidth=2;fillColor=#FFFFFF;strokeColor=#333333;opacity=100.0;html=1;nl2Br=0;verticalAlign=middle;align=center;spacingLeft=1.4069678;spacingRight=0;whiteSpace=wrap;gliffyId=1460;" value="&lt;div style='width: 64.534454px;height:auto;word-break: break-word;'&gt;&lt;div align=&quot;center&quot;&gt;&lt;span style=&quot;font-family: Arial; font-size: 12px; text-decoration: none; line-height: 0;&quot;&gt;&lt;span style=&quot;text-decoration: none; line-height: 14px;&quot;&gt;IDA_F1&lt;/span&gt;&lt;/span&gt;&lt;/div&gt;&lt;/div&gt;" vertex="1"><mxGeometry as="geometry" height="30.0" width="70.348388671875" x="10.75" y="10.0"/></mxCell><mxCell id="11" parent="2" style="shape=rect;shadow=0;strokeWidth=2;fillColor=#FFFFFF;strokeColor=#333333;opacity=100.0;html=1;nl2Br=0;verticalAlign=middle;align=center;spacingLeft=1.7;spacingRight=0;whiteSpace=wrap;gliffyId=1463;" value="&lt;div style='width: 78.6px;height:auto;word-break: break-word;'&gt;&lt;div align=&quot;center&quot;&gt;&lt;span style=&quot;font-family: Arial; font-size: 12px; text-decoration: none; color: #38761d; line-height: 0;&quot;&gt;&lt;span style=&quot;text-decoration: none; line-height: 14px;&quot;&gt;CONTENT_A&lt;/span&gt;&lt;/span&gt;&lt;/div&gt;&lt;/div&gt;" vertex="1"><mxGeometry as="geometry" height="30.0" width="85.0" x="221.59945678710938" y="10.0"/></mxCell><mxCell id="12" parent="2" style="shape=rect;shadow=0;strokeWidth=2;fillColor=#FFFFFF;strokeColor=#333333;opacity=100.0;html=1;nl2Br=0;verticalAlign=middle;align=center;spacingLeft=1.4069678;spacingRight=0;whiteSpace=wrap;gliffyId=1467;" value="&lt;div style='width: 64.534454px;height:auto;word-break: break-word;'&gt;&lt;div align=&quot;center&quot;&gt;&lt;span style=&quot;font-family: Arial; font-size: 12px; text-decoration: none; color: #38761d; line-height: 0;&quot;&gt;&lt;span style=&quot;text-decoration: none; line-height: 14px;&quot;&gt;IDA_F2_S1&lt;/span&gt;&lt;/span&gt;&lt;/div&gt;&lt;/div&gt;" vertex="1"><mxGeometry as="geometry" height="30.0" width="70.348388671875" x="81.401611328125" y="10.0"/></mxCell><mxCell id="13" parent="2" style="shape=rect;shadow=0;strokeWidth=2;fillColor=#FFFFFF;strokeColor=#333333;opacity=100.0;html=1;nl2Br=0;verticalAlign=middle;align=center;spacingLeft=1.3969892;spacingRight=0;whiteSpace=wrap;gliffyId=1488;" value="&lt;div style='width: 64.05548px;height:auto;word-break: break-word;'&gt;&lt;div align=&quot;center&quot;&gt;&lt;span style=&quot;font-family: Arial; font-size: 12px; text-decoration: none; color: #cc0000; line-height: 0;&quot;&gt;&lt;span style=&quot;text-decoration: none; line-height: 14px;&quot;&gt;IDA_F2_S2&lt;/span&gt;&lt;/span&gt;&lt;/div&gt;&lt;/div&gt;" vertex="1"><mxGeometry as="geometry" height="30.0" width="69.8494644165039" x="151.75" y="10.0"/></mxCell><mxCell edge="1" id="14" parent="2" source="10" style="shape=filledEdge;strokeWidth=2;strokeColor=#38761d;fillColor=none;startArrow=none;startFill=0;startSize=6;endArrow=block;endFill=1;endSize=6;rounded=1;gliffyId=1474;edgeStyle=orthogonalEdgeStyle;" target="3"><mxGeometry as="geometry" height="132.0" relative="1" width="17.0"><Array as="points"><mxPoint x="31.354564666748047" y="40.0"/><mxPoint x="31.354564666748047" y="180.5"/><mxPoint x="169.5" y="180.5"/></Array></mxGeometry></mxCell><mxCell edge="1" id="15" parent="2" source="10" style="shape=filledEdge;strokeWidth=2;strokeColor=#cc0000;fillColor=none;startArrow=none;startFill=0;startSize=6;endArrow=block;endFill=1;endSize=6;rounded=1;gliffyId=1506;edgeStyle=orthogonalEdgeStyle;" target="3"><mxGeometry as="geometry" height="132.0" relative="1" width="17.0"><Array as="points"><mxPoint x="45.9241943359375" y="40.0"/><mxPoint x="45.9241943359375" y="180.5"/><mxPoint x="169.5" y="180.5"/></Array></mxGeometry></mxCell><mxCell edge="1" id="16" parent="2" source="12" style="shape=filledEdge;strokeWidth=2;strokeColor=#38761d;fillColor=none;startArrow=none;startFill=0;startSize=6;endArrow=block;endFill=1;endSize=6;rounded=1;gliffyId=1476;edgeStyle=orthogonalEdgeStyle;" target="3"><mxGeometry as="geometry" height="39.0" relative="1" width="46.0"><Array as="points"><mxPoint x="102.00616455078125" y="40.0"/><mxPoint x="102.00616455078125" y="180.5"/><mxPoint x="169.5" y="180.5"/></Array></mxGeometry></mxCell><mxCell edge="1" id="17" parent="2" source="13" style="shape=filledEdge;strokeWidth=2;strokeColor=#cc0000;fillColor=none;startArrow=none;startFill=0;startSize=6;endArrow=block;endFill=1;endSize=6;rounded=1;gliffyId=1499;edgeStyle=orthogonalEdgeStyle;" target="3"><mxGeometry as="geometry" height="39.0" relative="1" width="46.0"><Array as="points"><mxPoint x="172.20843505859375" y="40.0"/><mxPoint x="172.20843505859375" y="110.25"/><mxPoint x="129.5" y="110.25"/><mxPoint x="129.5" y="180.5"/><mxPoint x="169.5" y="180.5"/></Array></mxGeometry></mxCell><mxCell edge="1" id="18" parent="2" source="11" style="shape=filledEdge;strokeWidth=2;strokeColor=#38761d;fillColor=none;startArrow=none;startFill=0;startSize=6;endArrow=block;endFill=1;endSize=6;rounded=1;gliffyId=1480;exitX=0.2928932309150696;exitY=1.0;exitPerimeter=0;entryX=0.5;entryY=0.0;entryPerimeter=0;edgeStyle=orthogonalEdgeStyle;" target="6"><mxGeometry as="geometry" height="39.0" relative="1" width="46.0"><Array as="points"><mxPoint x="246.49539184570312" y="40.0"/><mxPoint x="246.49539184570312" y="70.0"/><mxPoint x="231.25" y="70.0"/><mxPoint x="231.25" y="100.0"/></Array></mxGeometry></mxCell><mxCell edge="1" id="19" parent="2" source="10" style="shape=filledEdge;strokeWidth=1;strokeColor=#cc0000;fillColor=none;startArrow=none;startFill=0;startSize=6;endArrow=block;endFill=1;endSize=6;rounded=0;dashed=1;fixDash=1;dashPattern=1.0 1.0;curved=1;edgeStyle=orthogonalEdgeStyle;gliffyId=1500;edgeStyle=orthogonalEdgeStyle;" target="9"><mxGeometry as="geometry" height="100.0" relative="1" width="126.0"><Array as="points"><mxPoint x="60.49382019042969" y="40.0"/><mxPoint x="60.49382019042969" y="92.0"/><mxPoint x="326.375" y="92.0"/><mxPoint x="326.375" y="144.0"/></Array></mxGeometry></mxCell><mxCell edge="1" id="20" parent="2" source="13" style="shape=filledEdge;strokeWidth=1;strokeColor=#cc0000;fillColor=none;startArrow=none;startFill=0;startSize=6;endArrow=block;endFill=1;endSize=6;rounded=0;dashed=1;fixDash=1;dashPattern=1.0 1.0;curved=1;edgeStyle=orthogonalEdgeStyle;gliffyId=1502;edgeStyle=orthogonalEdgeStyle;" target="9"><mxGeometry as="geometry" height="104.0" relative="1" width="70.0"><Array as="points"><mxPoint x="186.6747283935547" y="40.0"/><mxPoint x="186.6747283935547" y="92.0"/><mxPoint x="326.375" y="92.0"/><mxPoint x="326.375" y="144.0"/></Array></mxGeometry></mxCell></root></mxGraphModel>